<svg width="40" height="40" viewBox="0 0 40 40" xmlns="http://www.w3.org/2000/svg">
  <!-- background -->
  <rect width="40" height="40" rx="8" fill="#013b95"/>

  <!-- B (slightly smaller + re-centered) -->
  <g transform="translate(12.2,7.2) scale(0.98)">
    <path fill="white" d="M 13.09 11.85 L 12.4 11.47 L 13 10.97 C 13.6103 10.4334 14.0951 9.76919 14.42 9.02435 C 14.7449 8.27951 14.9019 7.47231 14.88 6.65999 C 14.88 3.05999 12.09 0.739993 7.79 0.739993 H 2.31 C 1.69606 0.762953 1.11431 1.02048 0.684566 1.45953 C 0.254821 1.89857 0.00981021 2.48571 0 3.09999 L 0 23.5 H 7.88 C 12.67 23.5 15.77 20.89 15.77 16.84 C 15.8104 15.8446 15.583 14.8566 15.1116 13.9789 C 14.6403 13.1012 13.9421 12.3661 13.09 11.85 Z M 4.37 6.07999 C 4.37 5.01999 4.82 4.51999 5.8 4.45999 H 7.8 C 8.16093 4.42761 8.52456 4.47504 8.8651 4.59892 C 9.20565 4.7228 9.51476 4.9201 9.77052 5.17681 C 10.0263 5.43353 10.2224 5.74338 10.345 6.08438 C 10.4676 6.42538 10.5137 6.78919 10.48 7.14999 C 10.5194 7.51629 10.4791 7.88679 10.3616 8.23598 C 10.2442 8.58517 10.0524 8.90477 9.79964 9.17277 C 9.54684 9.44077 9.23898 9.65082 8.89723 9.78844 C 8.55549 9.92606 8.18798 9.988 7.82 9.96999 H 4.37 V 6.07999 Z M 8.2 19.64 H 4.37 V 15.06 C 4.37 14.06 4.76 13.57 5.59 13.45 H 8.2 C 8.99043 13.4949 9.7337 13.8406 10.2774 14.4161 C 10.8211 14.9916 11.124 15.7533 11.124 16.545 C 11.124 17.3367 10.8211 18.0984 10.2774 18.6739 C 9.7337 19.2494 8.99043 19.595 8.2 19.64 Z"/>
  </g>

  <!-- dot -->
  <circle cx="32" cy="27.8" r="2.5" fill="white"/>
</svg>
